<?xml version="1.0" encoding="utf-8"?><!-- Uploaded to: SVG Repo, www.svgrepo.com, Generator: SVG Repo Mixer Tools -->
<svg fill="#000000" width="800px" height="800px" viewBox="0 0 1024 1024" xmlns="http://www.w3.org/2000/svg"><path d="M51.2 544.963C51.2 272.267 272.267 51.2 544.963 51.2c11.311 0 20.48-9.169 20.48-20.48s-9.169-20.48-20.48-20.48C249.646 10.24 10.24 249.645 10.24 544.963c0 11.311 9.169 20.48 20.48 20.48s20.48-9.169 20.48-20.48zm562.958-426.23c208.123 33.264 363.312 213.599 363.312 426.62 0 238.617-193.439 432.056-432.056 432.056-210.972 0-390.126-152.273-425.7-357.827-1.929-11.145-12.527-18.616-23.672-16.688s-18.616 12.527-16.688 23.672c38.958 225.108 235.079 391.802 466.06 391.802 261.238 0 473.016-211.778 473.016-473.016 0-233.225-169.886-430.637-397.807-467.066-11.169-1.785-21.67 5.822-23.456 16.991s5.822 21.67 16.991 23.456z"/><path d="M524.483 37.947V552.19c0 11.311 9.169 20.48 20.48 20.48s20.48-9.169 20.48-20.48V37.947c0-11.311-9.169-20.48-20.48-20.48s-20.48 9.169-20.48 20.48z"/><path d="M30.72 572.67h514.243c11.311 0 20.48-9.169 20.48-20.48s-9.169-20.48-20.48-20.48H30.72c-11.311 0-20.48 9.169-20.48 20.48s9.169 20.48 20.48 20.48zm252.62-297.741c0-12.844-9.881-23.02-21.76-23.02s-21.76 10.175-21.76 23.02c0 12.844 9.881 23.02 21.76 23.02s21.76-10.175 21.76-23.02zm40.96 0c0 35.201-27.945 63.98-62.72 63.98s-62.72-28.778-62.72-63.98c0-35.201 27.945-63.98 62.72-63.98s62.72 28.778 62.72 63.98zm111.104 134.834c0-12.844-9.881-23.02-21.76-23.02s-21.76 10.175-21.76 23.02c0 12.844 9.881 23.02 21.76 23.02s21.76-10.175 21.76-23.02zm40.96 0c0 35.201-27.945 63.98-62.72 63.98s-62.72-28.778-62.72-63.98c0-35.201 27.945-63.98 62.72-63.98s62.72 28.778 62.72 63.98zm-77.412-162.151L229.992 421.59c-7.88 8.114-7.69 21.08.424 28.96s21.08 7.69 28.96-.424l168.96-173.978c7.88-8.114 7.69-21.08-.424-28.96s-21.08-7.69-28.96.424z"/></svg>